<?xml version="1.0" standalone="no"?>
<!DOCTYPE svg PUBLIC "-//W3C//DTD SVG 20010904//EN"
 "http://www.w3.org/TR/2001/REC-SVG-20010904/DTD/svg10.dtd">
<svg version="1.0" xmlns="http://www.w3.org/2000/svg"
 width="524.000000pt" height="524.000000pt" viewBox="0 0 524.000000 524.000000"
 preserveAspectRatio="xMidYMid meet">
<metadata>
Created by potrace 1.14, written by Peter Selinger 2001-2017
</metadata>
<g transform="translate(0.000000,524.000000) scale(0.100000,-0.100000)"
fill="#000000" stroke="none">
<path d="M1544 4364 c29 -52 29 -65 1 -34 -10 11 -24 20 -30 20 -7 0 -24 9
-39 21 -14 11 -26 18 -26 15 0 -3 18 -33 40 -68 21 -34 37 -64 34 -67 -2 -3
-21 11 -42 30 -128 118 -134 114 -27 -19 41 -51 75 -95 75 -98 0 -3 -15 5 -32
18 l-33 22 28 -36 27 -37 -34 6 c-19 3 -51 2 -71 -1 -30 -6 -34 -10 -25 -22 9
-10 9 -14 1 -14 -7 0 -6 -8 4 -24 10 -15 12 -26 6 -30 -6 -4 -8 -13 -5 -21 4
-8 -1 -18 -10 -21 -13 -5 -11 -10 9 -32 l25 -27 -23 -8 c-21 -8 -21 -9 -3 -22
10 -8 15 -18 12 -24 -4 -5 2 -14 11 -20 16 -9 15 -11 -10 -20 -16 -6 -33 -11
-38 -11 -6 0 -7 -4 -4 -10 3 -5 15 -10 25 -10 22 0 39 -22 22 -28 -18 -6 12
-32 37 -32 29 0 26 -18 -4 -26 -31 -8 -24 -19 13 -20 67 -2 69 -3 66 -29 -1
-14 -8 -33 -15 -41 -6 -8 -9 -17 -5 -21 3 -3 -2 -15 -11 -26 -17 -20 -17 -20
0 -14 47 18 70 20 62 7 -6 -10 -2 -11 19 -6 25 6 32 -1 27 -27 -1 -5 8 -6 19
-2 25 8 26 -3 3 -21 -16 -12 -15 -13 10 -14 28 0 36 -13 16 -26 -8 -4 -7 -9 2
-15 17 -10 -16 -37 -100 -80 l-63 -33 22 -18 c12 -10 32 -18 44 -18 22 0 57
-32 88 -78 8 -12 32 -40 52 -62 20 -21 36 -45 36 -52 0 -7 33 -63 73 -125 39
-61 87 -136 105 -165 18 -29 42 -64 53 -78 l21 -25 -20 35 c-26 46 -38 85 -23
76 10 -6 71 -97 135 -199 10 -16 20 -26 23 -23 3 3 1 11 -5 18 -11 14 -162
337 -162 347 1 15 68 -103 107 -189 24 -52 52 -113 62 -135 89 -193 85 -182
60 -160 -24 20 -24 20 -9 0 23 -30 40 -47 40 -39 0 4 8 0 18 -8 9 -8 44 -22
77 -31 128 -36 762 -250 774 -262 8 -9 -4 -5 -169 50 -91 31 -277 89 -415 131
-428 130 -603 189 -821 277 -235 95 -510 190 -534 183 -9 -2 -6 -4 7 -5 12 0
24 -5 27 -10 3 -4 27 -14 53 -21 76 -19 355 -125 540 -203 83 -36 98 -45 85
-54 -14 -9 -10 -11 18 -10 19 0 50 -6 68 -15 17 -9 46 -19 64 -23 73 -14 74
-17 26 -35 -68 -26 -110 -32 -243 -35 -118 -2 -119 -2 -60 10 l60 12 -95 3
c-75 2 -86 4 -55 10 22 4 33 8 25 9 -8 2 1 9 20 17 24 10 27 13 10 10 -14 -3
-47 -7 -75 -10 l-50 -6 50 14 50 14 -65 2 -65 2 49 13 c65 18 87 39 31 31 -22
-4 -102 -8 -179 -11 -76 -2 -141 -6 -144 -9 -3 -4 8 -6 24 -6 29 -1 29 -1 6
-13 -33 -19 -17 -27 52 -28 46 -1 54 -3 31 -8 l-30 -7 36 -7 c20 -4 45 -5 55
-2 11 3 4 -2 -13 -10 -18 -8 -33 -17 -33 -19 0 -1 24 -1 53 1 l52 3 -39 -15
c-62 -24 -57 -28 24 -22 l75 6 -45 -17 -45 -17 50 -3 c35 -2 45 -6 35 -12 -11
-7 -4 -10 24 -10 l39 0 -24 -21 -24 -21 50 6 c35 4 44 3 30 -3 -15 -7 -7 -10
35 -11 53 -1 54 -1 30 -15 -25 -14 -24 -14 20 -15 43 -1 44 -1 21 -14 -31 -17
-17 -25 57 -32 43 -5 59 -10 55 -19 -2 -7 2 -13 9 -12 50 2 91 -4 79 -12 -9
-6 3 -11 35 -16 41 -7 45 -9 24 -14 -32 -9 206 -40 380 -51 106 -7 93 -8 -85
-5 -128 2 -192 0 -165 -5 72 -13 245 -29 375 -35 184 -9 337 -26 365 -40 14
-7 52 -16 84 -20 80 -9 99 -17 66 -26 -22 -6 -21 -7 10 -8 49 -2 68 -15 44
-30 -16 -9 -14 -10 18 -11 20 0 44 -3 54 -7 16 -6 16 -7 -2 -14 -15 -6 -12 -8
14 -8 25 -1 32 -5 32 -21 0 -11 6 -20 14 -20 22 0 182 -80 161 -80 -5 0 -4 -4
4 -9 10 -7 0 -11 -35 -17 l-49 -7 35 -9 c51 -14 57 -25 19 -37 l-34 -10 40 4
c36 3 38 2 21 -10 -10 -8 -23 -12 -27 -9 -5 3 -9 1 -9 -4 0 -4 -34 -16 -75
-26 -41 -10 -75 -21 -75 -25 0 -4 21 -12 48 -17 28 -6 46 -14 44 -22 -3 -15
14 -16 24 -1 5 8 10 6 16 -5 5 -9 18 -16 28 -16 11 0 19 -6 17 -12 -1 -7 5
-12 13 -10 19 3 -53 -62 -147 -135 -40 -30 -73 -57 -73 -59 0 -7 16 3 90 55
81 57 98 61 95 21 -3 -33 19 -47 44 -28 14 11 14 11 3 -3 -10 -14 -10 -18 2
-22 7 -3 19 0 26 6 10 9 11 9 5 -2 -6 -11 -4 -13 9 -8 21 8 56 -12 49 -30 -3
-7 -1 -13 5 -13 15 0 9 -33 -8 -47 -13 -11 -13 -12 0 -13 8 0 22 5 30 10 10 6
21 3 38 -13 13 -12 25 -21 28 -19 12 7 34 1 29 -8 -3 -5 1 -10 11 -10 11 0 15
-6 11 -20 -3 -11 0 -18 7 -17 6 1 10 -4 9 -10 -2 -7 8 -15 22 -19 14 -3 25
-10 25 -14 0 -5 10 -12 21 -15 17 -6 19 -9 8 -16 -11 -7 -9 -9 6 -9 24 -1 53
-21 48 -35 -1 -5 9 -11 25 -11 15 -1 53 -4 85 -7 31 -3 57 -2 57 1 0 4 20 6
45 5 25 -1 43 2 41 6 -3 4 11 13 30 20 20 7 32 17 28 23 -5 7 4 9 24 6 22 -3
29 -1 25 9 -4 9 0 11 11 7 12 -5 15 -2 10 9 -5 14 1 15 40 10 36 -4 46 -2 44
8 -2 8 -10 17 -18 22 -10 5 -7 6 8 3 31 -6 54 3 45 17 -9 14 50 -28 67 -48 7
-8 19 -15 28 -15 12 0 12 3 -3 20 -22 25 -28 48 -11 47 6 0 29 1 51 2 39 2 39
2 16 15 l-24 14 29 2 c16 1 47 3 70 3 37 1 44 6 72 48 16 25 27 50 24 56 -4 5
-40 30 -79 56 -40 26 -73 49 -73 52 0 7 -5 10 87 -44 40 -24 80 -41 90 -39 23
4 -75 67 -223 141 -145 74 -208 115 -239 157 -35 47 -11 53 47 12 24 -16 83
-57 132 -90 84 -58 114 -71 87 -39 -6 8 -9 21 -6 28 3 8 -25 50 -65 97 -39 45
-69 82 -67 82 3 0 31 -11 63 -25 58 -25 59 -25 33 -3 -14 13 -48 47 -75 77
l-49 54 65 -32 65 -33 -60 54 c-33 30 -98 88 -144 129 -82 72 -110 106 -77 93
28 -11 17 4 -19 26 -39 24 -47 45 -12 34 48 -15 51 -15 27 3 -39 28 -111 96
-106 100 2 2 21 -6 42 -18 l39 -21 -45 38 c-25 22 -58 52 -75 68 l-30 28 29
-17 c99 -59 96 -53 -39 84 -125 127 -255 243 -255 226 0 -3 9 -23 20 -44 10
-21 16 -41 13 -45 -3 -3 10 -43 31 -88 65 -146 117 -243 251 -468 58 -98 75
-130 75 -146 0 -9 -5 -12 -12 -8 -7 4 -4 -2 6 -14 11 -12 14 -22 9 -22 -17 0
-141 136 -233 255 -46 61 -98 126 -115 145 -25 29 -101 149 -206 328 -28 48
-160 333 -204 442 -56 138 -113 275 -135 325 -10 22 -20 47 -23 55 -3 8 -17
41 -31 73 -15 32 -21 55 -14 51 8 -5 9 -2 4 11 -6 16 -4 16 11 4 23 -19 16 -7
-70 113 -38 54 -67 103 -65 109 2 7 30 -25 63 -70 32 -44 61 -79 63 -76 3 3
-3 18 -14 33 -39 52 -37 57 7 15 25 -24 48 -43 53 -43 9 0 -27 45 -178 225
-60 72 -125 154 -144 183 -33 50 -56 66 -33 24 8 -16 51 -266 51 -300 0 -3
-30 39 -66 93 -98 147 -170 239 -125 161 12 -21 20 -40 18 -43 -5 -4 -77 107
-95 147 -26 55 -1 -38 34 -126 18 -48 32 -89 31 -91 -2 -1 -36 41 -75 95 -39
53 -100 129 -137 167 l-66 70 40 -60 c22 -33 64 -89 92 -125 48 -62 126 -206
116 -217 -3 -2 -37 42 -76 99 -38 57 -95 130 -126 163 l-56 60 35 -57 c45 -74
30 -75 -25 -3 -23 30 -43 55 -46 55 -5 0 35 -69 49 -84 4 -6 8 -15 8 -20 0 -6
-21 10 -46 34 -36 35 -42 39 -28 16 l18 -29 -22 12 c-25 13 -27 9 -11 -21 21
-39 0 -28 -77 41 -44 39 -85 71 -93 71 -8 0 -29 11 -47 25 -18 14 -35 25 -38
25 -3 0 -25 18 -47 40 -23 22 -47 40 -54 40 -7 0 -16 8 -19 17 -6 13 -9 14
-15 5 -11 -18 -83 19 -105 53 -9 13 -25 29 -36 35 -19 10 -20 9 -15 -17 6 -25
2 -22 -40 25 -52 58 -74 68 -50 21 9 -17 14 -36 12 -42 -2 -7 -9 -3 -15 10 -7
12 -40 43 -73 68 l-62 47 27 -48z m1568 -1063 c64 -137 128 -324 115 -337 -2
-3 -19 26 -36 63 -18 38 -38 75 -45 83 -18 21 -97 237 -103 280 -4 34 -4 34
12 15 10 -11 35 -58 57 -104z m-905 -398 c9 -11 12 -12 7 -3 -17 36 143 -132
181 -191 34 -50 175 -330 175 -345 0 -2 -12 2 -27 7 -16 5 -41 29 -57 52 -16
23 -31 36 -34 29 -6 -18 -20 -14 -27 8 -4 11 -17 32 -29 48 -13 15 -46 70 -74
122 -27 52 -61 115 -75 140 -32 56 -67 130 -67 141 0 14 12 10 27 -8z m-45
-67 c30 -13 40 -27 75 -108 41 -92 105 -279 98 -286 -6 -6 -125 180 -131 206
-4 15 -15 38 -25 52 -13 20 -59 133 -59 147 0 5 7 3 42 -11z m609 -183 c13
-16 12 -17 -3 -4 -10 7 -18 15 -18 17 0 8 8 3 21 -13z m-556 -108 c26 -49 42
-85 36 -79 -6 5 -34 52 -61 104 -28 52 -44 88 -37 80 8 -8 35 -55 62 -105z
m635 49 c0 -3 -13 4 -30 16 -16 12 -30 24 -30 26 0 3 14 -4 30 -16 17 -12 30
-24 30 -26z m160 -105 c17 -13 18 -17 5 -10 -33 17 -51 31 -40 31 6 0 21 -10
35 -21z m140 -93 c114 -80 233 -166 245 -179 18 -19 -48 25 -140 93 -49 36
-118 85 -152 109 -35 23 -63 44 -63 47 0 7 9 1 110 -70z m-1613 28 c-3 -3 -12
-4 -19 -1 -8 3 -5 6 6 6 11 1 17 -2 13 -5z m528 -3 c-6 -4 -28 -13 -50 -19
-22 -6 -58 -17 -80 -25 -22 -8 -67 -18 -100 -21 l-60 -6 65 21 c179 56 249 72
225 50z m125 -61 c3 -4 21 -10 40 -13 l35 -4 -38 -1 c-25 -1 -36 -6 -31 -13 4
-8 -3 -9 -22 -5 -16 3 -58 2 -94 -3 -74 -10 -88 -7 -39 8 l34 9 -32 1 c-18 1
-33 6 -33 11 0 6 -10 11 -22 12 -13 0 0 4 27 8 59 9 167 3 175 -10z m65 -51
c-62 -9 -204 -10 -160 0 17 3 71 7 120 7 76 1 82 0 40 -7z m53 -76 c-10 -2
-28 -2 -40 0 -13 2 -5 4 17 4 22 1 32 -1 23 -4z m1299 -166 c8 -13 -51 22 -85
50 -18 15 -9 12 26 -9 29 -17 56 -36 59 -41z m688 -447 c3 -5 2 -10 -4 -10 -5
0 -13 5 -16 10 -3 6 -2 10 4 10 5 0 13 -4 16 -10z m93 -178 c2 -8 -22 0 -59
18 -69 35 -209 119 -209 126 0 10 264 -132 268 -144z m-996 0 c-7 -2 -12 -8
-12 -13 0 -6 6 -7 13 -3 8 5 8 2 -2 -9 -14 -18 -37 -24 -26 -8 3 5 0 13 -5 16
-7 5 -5 12 7 20 10 7 22 11 27 7 6 -3 5 -7 -2 -10z"/>
<path d="M2520 4157 c0 -14 49 -105 61 -112 6 -4 3 7 -6 25 -25 49 -55 96 -55
87z"/>
<path d="M2800 4074 c0 -11 38 -63 95 -129 75 -87 148 -185 142 -191 -2 -3
-39 38 -81 91 -42 52 -79 95 -82 95 -10 0 56 -94 139 -197 38 -48 64 -71 77
-70 19 1 19 2 1 32 -10 16 -35 59 -56 95 -21 36 -53 83 -70 105 -37 45 -165
177 -165 169z"/>
<path d="M2620 3970 c6 -11 13 -20 16 -20 2 0 0 9 -6 20 -6 11 -13 20 -16 20
-2 0 0 -9 6 -20z"/>
<path d="M865 3890 c3 -5 11 -10 16 -10 6 0 7 5 4 10 -3 6 -11 10 -16 10 -6 0
-7 -4 -4 -10z"/>
<path d="M647 3843 c-3 -5 -2 -15 2 -22 7 -10 10 -10 16 -1 4 6 3 16 -3 22 -5
5 -12 6 -15 1z"/>
<path d="M3110 3416 c0 -11 43 -76 47 -72 3 3 -5 21 -17 40 -20 33 -30 43 -30
32z"/>
<path d="M1330 3381 c-16 -31 -12 -49 14 -66 45 -30 91 16 61 61 -19 29 -60
32 -75 5z"/>
<path d="M1721 3043 c43 -71 91 -143 96 -143 3 0 -1 10 -9 23 -8 12 -34 52
-57 90 -45 70 -69 95 -30 30z"/>
<path d="M1830 2870 c6 -11 13 -20 16 -20 2 0 0 9 -6 20 -6 11 -13 20 -16 20
-2 0 0 -9 6 -20z"/>
<path d="M1670 2855 c0 -5 26 -36 58 -70 31 -33 86 -97 122 -140 35 -44 69
-83 75 -87 9 -7 123 -48 175 -63 22 -7 23 -6 11 9 -7 9 -20 16 -27 16 -7 0
-21 15 -30 33 -16 31 -107 162 -126 182 -6 6 2 -14 16 -42 15 -29 24 -53 20
-53 -3 0 -19 9 -35 21 -30 21 -38 17 -16 -10 7 -9 25 -35 41 -59 24 -38 25
-42 7 -32 -11 6 -33 27 -48 48 -34 45 -243 258 -243 247z"/>
<path d="M1070 2830 c8 -5 20 -10 25 -10 6 0 3 5 -5 10 -8 5 -19 10 -25 10 -5
0 -3 -5 5 -10z"/>
<path d="M1715 2745 c21 -28 54 -68 72 -91 18 -22 30 -44 26 -47 -7 -7 58 -37
79 -37 7 1 1 7 -14 16 -15 8 -42 36 -59 62 -40 59 -75 98 -114 125 -28 20 -28
18 10 -28z"/>
<path d="M1004 2655 c-59 -13 -155 -50 -106 -41 23 4 31 -9 10 -17 -9 -4 -8
-6 2 -6 24 -1 167 47 145 49 -16 1 -14 4 10 15 38 17 18 17 -61 0z"/>
<path d="M3725 2610 c21 -22 41 -40 44 -40 3 0 -13 18 -34 40 -21 22 -41 40
-44 40 -3 0 13 -18 34 -40z"/>
<path d="M3694 2598 c16 -21 31 -38 35 -38 4 0 38 -25 77 -56 54 -44 59 -47
23 -12 -25 23 -72 66 -105 93 -57 48 -58 49 -30 13z"/>
<path d="M1171 2605 c-78 -17 -95 -30 -26 -20 53 8 95 21 95 30 0 3 -1 5 -2 4
-2 0 -32 -7 -67 -14z"/>
<path d="M3795 2600 c10 -11 20 -20 23 -20 3 0 -3 9 -13 20 -10 11 -20 20 -23
20 -3 0 3 -9 13 -20z"/>
<path d="M1550 1710 c-11 -7 -4 -10 28 -10 23 0 54 -7 67 -16 17 -11 36 -14
56 -10 18 3 28 2 24 -4 -4 -6 9 -10 29 -10 45 0 47 15 4 24 -18 3 -69 12 -113
21 -44 8 -80 15 -80 15 0 0 -7 -5 -15 -10z"/>
<path d="M3130 1708 c0 -4 3 -8 8 -9 4 0 22 -2 39 -3 18 -2 31 0 28 4 -7 11
-75 18 -75 8z"/>
<path d="M3228 1693 c7 -3 16 -2 19 1 4 3 -2 6 -13 5 -11 0 -14 -3 -6 -6z"/>
<path d="M3275 1690 c3 -5 8 -10 11 -10 2 0 4 5 4 10 0 6 -5 10 -11 10 -5 0
-7 -4 -4 -10z"/>
<path d="M2645 1600 c-3 -6 1 -7 9 -4 18 7 21 14 7 14 -6 0 -13 -4 -16 -10z"/>
<path d="M3139 1293 c-13 -16 -12 -17 4 -4 16 13 21 21 13 21 -2 0 -10 -8 -17
-17z"/>
<path d="M3525 1210 c-3 -5 -2 -10 4 -10 5 0 13 5 16 10 3 6 2 10 -4 10 -5 0
-13 -4 -16 -10z"/>
<path d="M3385 1130 c-8 -13 5 -13 25 0 13 8 13 10 -2 10 -9 0 -20 -4 -23 -10z"/>
<path d="M3745 1040 c3 -5 8 -10 11 -10 2 0 4 5 4 10 0 6 -5 10 -11 10 -5 0
-7 -4 -4 -10z"/>
</g>
</svg>
